# xmcd
#
# Track frame offsets: 
#        150
#        14667
#        28770
#        40912
#        54448
#        68746
#        85411
#        99004
#        111301
#        129943
#        144441
#
# Disc length: 2184 seconds
#
# Revision: 0
# Processed by: cddbd v1.5.2PL0 Copyright (c) Steve Scherf et al.
# Submitted via: ExactAudioCopy v0.95b3
#
DISCID=8d08860b
DTITLE=S.G. Sinnicks - Red Meat and Blue 88's
DYEAR=2008
DGENRE=Folk/Rock
TTITLE0=Red Meat and Blue 88's
TTITLE1=The Colours
TTITLE2=Jesus Was A Refugee
TTITLE3=Well Heeled Men
TTITLE4=Give My Regards To K-Street
TTITLE5=Myself Again
TTITLE6=Idle Hands
TTITLE7=Franklin Co. Queen
TTITLE8=St. Patrick's Battalion
TTITLE9=True Believer
TTITLE10=There's A War On
EXTD=
EXTT0=
EXTT1=
EXTT2=
EXTT3=
EXTT4=
EXTT5=
EXTT6=
EXTT7=
EXTT8=
EXTT9=
EXTT10=
PLAYORDER=
